<?xml version="1.0" encoding="utf-8"?>
<!-- Generator: Adobe Illustrator 13.0.2, SVG Export Plug-In . SVG Version: 6.00 Build 14948)  -->
<!DOCTYPE svg PUBLIC "-//W3C//DTD SVG 1.1 Basic//EN" "http://www.w3.org/Graphics/SVG/1.1/DTD/svg11-basic.dtd">
<svg version="1.1" baseProfile="basic" id="Ebene_1"
	 xmlns="http://www.w3.org/2000/svg" xmlns:xlink="http://www.w3.org/1999/xlink" x="0px" y="0px" width="112.177px"
	 height="39.076px" viewBox="0 0 112.177 39.076" xml:space="preserve">
<g>
	<defs>
		<rect id="SVGID_1_" width="112.175" height="39.076"/>
	</defs>
	<clipPath id="SVGID_2_">
		<use xlink:href="#SVGID_1_"  overflow="visible"/>
	</clipPath>
	<path clip-path="url(#SVGID_2_)" fill="#B20053" d="M55.245,22.254H0v5.67h55.353c-0.225-0.996-0.355-2.029-0.355-3.092
		C54.998,23.949,55.09,23.09,55.245,22.254 M106.677,22.254c-0.28,2.006-0.861,3.908-1.701,5.67h7.201v-5.67H106.677z"/>
	<path clip-path="url(#SVGID_2_)" fill="#E8C619" d="M100.642,5.247c1.73,1.61,3.164,3.526,4.221,5.669h7.314V5.247H100.642z
		 M0,10.916h69.837c1.057-2.143,2.49-4.059,4.221-5.669H0V10.916z"/>
	<path clip-path="url(#SVGID_2_)" fill="#B20053" d="M71.381,19.537c0.002-8.821,7.148-15.967,15.971-15.969
		c8.818,0.002,15.965,7.148,15.967,15.969c-0.002,8.82-7.148,15.969-15.967,15.969C78.529,35.506,71.383,28.357,71.381,19.537
		 M74.372,19.537c0.015,7.166,5.811,12.965,12.979,12.977c7.166-0.012,12.961-5.811,12.976-12.977
		c-0.015-7.165-5.81-12.963-12.976-12.978C80.183,6.574,74.387,12.372,74.372,19.537"/>
	<path clip-path="url(#SVGID_2_)" fill="#B20053" d="M75.99,19.538c0-6.275,5.085-11.36,11.358-11.36
		c6.274,0,11.357,5.085,11.359,11.36c-0.002,6.272-5.085,11.358-11.359,11.358C81.075,30.896,75.99,25.811,75.99,19.538
		 M76.589,19.538c0.01,5.942,4.817,10.749,10.76,10.759c5.942-0.01,10.749-4.816,10.761-10.759
		c-0.012-5.943-4.818-10.752-10.761-10.762C81.406,8.786,76.599,13.595,76.589,19.538"/>
	<path clip-path="url(#SVGID_2_)" fill="#B20053" d="M58.287,24.832c0-5.913,4.792-10.705,10.703-10.705
		c5.914,0,10.703,4.792,10.705,10.705c-0.002,5.912-4.791,10.703-10.705,10.703C63.079,35.535,58.287,30.744,58.287,24.832
		 M58.886,24.832c0.009,5.582,4.524,10.096,10.104,10.107c5.582-0.012,10.097-4.525,10.106-10.107
		c-0.01-5.582-4.524-10.096-10.106-10.106C63.41,14.736,58.895,19.25,58.886,24.832"/>
	<polygon clip-path="url(#SVGID_2_)" fill="#E8C619" points="82.332,22.551 86.325,17.988 90.543,17.988 87.624,21.061 
		93.522,21.061 93.522,24.039 87.91,24.039 90.733,26.768 86.42,26.768 	"/>
	<polygon clip-path="url(#SVGID_2_)" fill="#E8C619" points="66.719,25.002 64.141,25.002 65.828,23.371 62.473,23.371 
		62.473,21.59 65.999,21.59 64.254,19.752 66.776,19.752 69.163,22.481 	"/>
	<path clip-path="url(#SVGID_2_)" fill="#141413" d="M54.035,19.059c0,0.191-0.161,0.332-0.301,0.332c-0.151,0-0.27-0.141-0.27-0.33
		v-3.072c0-0.189,0.119-0.33,0.27-0.33s0.301,0.17,0.301,0.33v3.072V19.059z M55.042,12.91h-1.008v2.24c0,0-0.431-0.44-0.801-0.44
		c-0.549,0-0.779,0.619-0.779,1.07v3.49c0,0.451,0.23,1.07,0.779,1.07c0.37,0,0.801-0.439,0.801-0.439v0.359h1.008V12.91z
		 M50.405,15.689c0.12,0,0.24,0.03,0.24,0.24v4.331h1.009v-4.48c0-0.451-0.22-1.07-0.759-1.07c-0.351,0-0.741,0.49-0.821,0.54v-0.46
		h-1.009v5.47h1.009v-4.31C50.075,15.949,50.205,15.689,50.405,15.689 M45.539,18.99c0,1.149,0.539,1.35,0.809,1.35
		c0.41,0,0.711-0.33,0.811-0.519h0.07c0,0.058,0,0.338,0.09,0.439h0.989c-0.04-0.24-0.07-0.461-0.07-0.951v-1.65v-1.71
		c0-0.709-0.57-1.239-1.229-1.239c-0.771,0-1.36,0.66-1.36,1.459v0.23h1.009c0.009-0.309-0.05-0.809,0.291-0.809
		c0.28,0,0.28,0.299,0.28,0.5v0.42v0.18C47.127,17.02,45.539,17.141,45.539,18.99 M46.527,18.84c0-0.519,0.21-1.01,0.701-1.22v1.4
		c0,0.18-0.19,0.33-0.421,0.33C46.558,19.35,46.527,18.971,46.527,18.84 M44.851,12.91h-1.009v7.35h1.009V12.91z M41.77,15.689
		c0.12,0,0.24,0.03,0.24,0.24v4.331h1.009v-4.48c0-0.451-0.22-1.07-0.759-1.07c-0.35,0-0.741,0.49-0.821,0.54v-0.46H40.43v5.47
		h1.009v-4.31C41.438,15.949,41.568,15.689,41.77,15.689 M38.595,13.919h1.009V12.91h-1.009V13.919z M39.604,14.79h-1.009v5.47
		h1.009V14.79z M36.166,16.15c0,0,0-0.56,0.372-0.56c0.379,0,0.36,0.56,0.36,0.56v0.77h-0.732V16.15z M36.897,18.301v0.6
		c0,0,0.019,0.549-0.36,0.549c-0.372,0-0.372-0.549-0.372-0.549v-1.192h1.67v-1.59c0,0,0.011-1.409-1.298-1.409
		c-1.3,0-1.31,1.44-1.31,1.44v2.751c0,0,0,1.439,1.3,1.439c1.308,0,1.308-1.41,1.308-1.41v-0.629H36.897z M33.208,15.689
		c0.121,0,0.241,0.03,0.241,0.24v4.331h1.008v-4.48c0-0.451-0.219-1.07-0.758-1.07c-0.35,0-0.742,0.49-0.822,0.54v-2.34H31.87v7.35
		h1.008v-4.311C32.877,15.949,33.008,15.689,33.208,15.689 M31.28,14.71c-0.741,0-0.98,0.55-1.01,0.69v-0.61h-1.008v5.47h1.008v-3.8
		c0-0.17,0.04-0.34,0.22-0.5c0.321-0.28,0.79-0.13,0.79-0.13V14.71z M24.592,12.91v7.35h1.008v-1.891l0.13-0.318l0.03-0.08h0.05
		l0.02,0.08l0.5,2.209h0.97l-0.92-3.689l0.73-1.781h-0.91l-0.491,1.43L25.65,16.4h-0.05v-0.18v-3.31H24.592z M22.515,15.689
		c0.121,0,0.241,0.03,0.241,0.24v4.331h1.009v-4.48c0-0.451-0.221-1.07-0.759-1.07c-0.35,0-0.741,0.49-0.821,0.54v-0.46h-1.009v5.47
		h1.009v-4.31C22.185,15.949,22.314,15.689,22.515,15.689 M18.998,19.361c-0.121,0-0.24-0.031-0.24-0.241v-4.33h-1.009v4.48
		c0,0.451,0.22,1.07,0.759,1.07c0.35,0,0.741-0.49,0.821-0.539v0.459h1.008v-5.47h-1.008v4.31
		C19.329,19.1,19.199,19.361,18.998,19.361 M16.582,20.26v-4.561h0.51V14.79h-0.51v-0.06v-0.08c0-0.25-0.02-0.881,0.32-0.881
		c0.17,0,0.3,0.04,0.3,0.04V12.94c0,0-0.15-0.07-0.47-0.07c-1.159,0-1.159,1.2-1.159,1.77v0.07v0.08h-0.51v0.909h0.51v4.561H16.582z
		 M13.438,13.919h1.009V12.91h-1.009V13.919z M14.446,14.79h-1.009v5.47h1.009V14.79z M11.009,16.15c0,0,0-0.56,0.37-0.56
		c0.381,0,0.361,0.56,0.361,0.56v0.77h-0.731V16.15z M11.741,18.301v0.6c0,0,0.02,0.549-0.361,0.549c-0.37,0-0.37-0.549-0.37-0.549
		v-1.192h1.67v-1.59c0,0,0.01-1.409-1.3-1.409c-1.299,0-1.309,1.44-1.309,1.44v2.751c0,0,0,1.439,1.299,1.439
		c1.31,0,1.31-1.41,1.31-1.41v-0.629H11.741z M9.527,14.71c-0.74,0-0.98,0.55-1.01,0.69v-0.61H7.508v5.47h1.009v-3.8
		c0-0.17,0.04-0.34,0.22-0.5c0.32-0.28,0.79-0.13,0.79-0.13V14.71z M6.332,20.26v-4.561h0.51V14.79h-0.51v-0.06v-0.08
		c0-0.25-0.02-0.881,0.32-0.881c0.17,0,0.3,0.04,0.3,0.04V12.94c0,0-0.15-0.07-0.47-0.07c-1.159,0-1.159,1.2-1.159,1.77v0.07v0.08
		h-0.51v0.909h0.51v4.561H6.332z"/>
</g>
</svg>
