<?xml version="1.0" encoding="UTF-8" standalone="no"?>
<!-- Created with Inkscape (http://www.inkscape.org/) -->

<svg
   xmlns:dc="http://purl.org/dc/elements/1.1/"
   xmlns:cc="http://creativecommons.org/ns#"
   xmlns:rdf="http://www.w3.org/1999/02/22-rdf-syntax-ns#"
   xmlns:svg="http://www.w3.org/2000/svg"
   xmlns="http://www.w3.org/2000/svg"
   xmlns:sodipodi="http://sodipodi.sourceforge.net/DTD/sodipodi-0.dtd"
   xmlns:inkscape="http://www.inkscape.org/namespaces/inkscape"
   id="svg2"
   version="1.1"
   inkscape:version="0.48.3.1 r9886"
   width="7157.475"
   height="1842.525"
   xml:space="preserve"
   sodipodi:docname="FFRL_2000x500_ZW.pdf"><metadata
     id="metadata8"><rdf:RDF><cc:Work
         rdf:about=""><dc:format>image/svg+xml</dc:format><dc:type
           rdf:resource="http://purl.org/dc/dcmitype/StillImage" /><dc:title></dc:title></cc:Work></rdf:RDF></metadata><defs
     id="defs6"><clipPath
       clipPathUnits="userSpaceOnUse"
       id="clipPath18"><path
         d="m 4164.669,246.601 1386.019,0 0,1049.251 -1386.019,0 0,-1049.251 z"
         id="path20" /></clipPath><clipPath
       clipPathUnits="userSpaceOnUse"
       id="clipPath66"><path
         d="m 0,0 5725.984,0 0,1474.016 L 0,1474.016 0,0 z"
         id="path68" /></clipPath></defs><sodipodi:namedview
     pagecolor="#ffffff"
     bordercolor="#666666"
     borderopacity="1"
     objecttolerance="10"
     gridtolerance="10"
     guidetolerance="10"
     inkscape:pageopacity="0"
     inkscape:pageshadow="2"
     inkscape:window-width="1049"
     inkscape:window-height="823"
     id="namedview4"
     showgrid="false"
     inkscape:zoom="0.34571156"
     inkscape:cx="634.58345"
     inkscape:cy="833.12671"
     inkscape:window-x="0"
     inkscape:window-y="0"
     inkscape:window-maximized="0"
     inkscape:current-layer="g62" /><g
     id="g10"
     inkscape:groupmode="layer"
     inkscape:label="FFRL_2000x500_ZW"
     transform="matrix(1.25,0,0,-1.25,0,1842.525)"><path
       d="m 0,350.733 5725.984,0 0,161.866 L 0,512.599 0,350.733 z"
       style="fill:#ec086d;fill-opacity:1;fill-rule:nonzero;stroke:none"
       id="path12" /><g
       id="g14"><g
         id="g16"
         clip-path="url(#clipPath18)"><g
           id="g22"
           transform="translate(4645.6807,771.2261)"><path
             d="M 0,0 C 0,210.085 170.304,380.389 380.384,380.389 590.469,380.389 760.772,210.085 760.772,0 760.772,-210.085 590.469,-380.389 380.384,-380.389 170.304,-380.389 0,-210.085 0,0"
             style="fill:#ffffff;fill-opacity:1;fill-rule:nonzero;stroke:none"
             id="path24" /></g><g
           id="g26"
           transform="translate(4645.6807,771.2261)"><path
             d="M 0,0 C 0,210.085 170.304,380.389 380.384,380.389 590.469,380.389 760.773,210.085 760.773,0 760.773,-210.085 590.469,-380.389 380.384,-380.389 170.304,-380.389 0,-210.085 0,0 z"
             style="fill:none;stroke:#ffffff;stroke-opacity:1;stroke-width:266.282;stroke-linecap:butt;stroke-linejoin:miter;stroke-miterlimit:4;stroke-dasharray:none"
             id="path28" /></g><g
           id="g30"
           transform="translate(4270.0732,632.074)"><path
             d="m 0,0 c 0,151.043 122.439,273.472 273.472,273.472 151.037,0 273.477,-122.429 273.477,-273.472 0,-151.043 -122.44,-273.471 -273.477,-273.471 C 122.439,-273.471 0,-151.043 0,0"
             style="fill:#ffffff;fill-opacity:1;fill-rule:nonzero;stroke:none"
             id="path32" /></g><g
           id="g34"
           transform="translate(4270.0732,632.074)"><path
             d="M 0,0 C 0,151.043 122.44,273.471 273.472,273.471 424.509,273.471 546.948,151.043 546.948,0 546.948,-151.043 424.509,-273.471 273.472,-273.471 122.44,-273.471 0,-151.043 0,0 z"
             style="fill:none;stroke:#ffffff;stroke-opacity:1;stroke-width:188.616;stroke-linecap:butt;stroke-linejoin:miter;stroke-miterlimit:4;stroke-dasharray:none"
             id="path36" /></g><g
           id="g38"
           transform="translate(4645.6807,771.2261)"><path
             d="M 0,0 C 0,210.085 170.304,380.389 380.384,380.389 590.469,380.389 760.773,210.085 760.773,0 760.773,-210.085 590.469,-380.389 380.384,-380.389 170.304,-380.389 0,-210.085 0,0 z"
             style="fill:none;stroke:#ffffff;stroke-opacity:1;stroke-width:92.827;stroke-linecap:butt;stroke-linejoin:miter;stroke-miterlimit:4;stroke-dasharray:none"
             id="path40" /></g><g
           id="g42"
           transform="translate(4645.6807,771.2261)"><path
             d="M 0,0 C 0,210.085 170.304,380.389 380.384,380.389 590.469,380.389 760.773,210.085 760.773,0 760.773,-210.085 590.469,-380.389 380.384,-380.389 170.304,-380.389 0,-210.085 0,0 z"
             style="fill:none;stroke:#ec086d;stroke-opacity:1;stroke-width:78.625;stroke-linecap:butt;stroke-linejoin:miter;stroke-miterlimit:4;stroke-dasharray:none"
             id="path44" /></g><g
           id="g46"
           transform="translate(4735.3838,771.2314)"><path
             d="M 0,0 C 0,160.54 130.14,290.68 290.674,290.68 451.22,290.68 581.36,160.54 581.36,0 581.36,-160.546 451.22,-290.685 290.674,-290.685 130.14,-290.685 0,-160.546 0,0 z"
             style="fill:none;stroke:#ec086d;stroke-opacity:1;stroke-width:15.727;stroke-linecap:butt;stroke-linejoin:miter;stroke-miterlimit:4;stroke-dasharray:none"
             id="path48" /></g><g
           id="g50"
           transform="translate(4483.8218,627.5779)"><path
             d="m 0,0 -67.786,0 44.375,42.877 -88.2,0 0,46.815 92.683,0 -45.867,48.319 66.287,0 L 64.24,66.277 0,0 z"
             style="fill:#fbc707;fill-opacity:1;fill-rule:nonzero;stroke:none"
             id="path52" /></g><g
           id="g54"
           transform="translate(4894.1821,692.022)"><path
             d="m 0,0 104.948,119.965 110.851,0 -76.7,-80.799 155.004,0 0,-78.304 -147.509,0 74.215,-71.707 -113.37,0 L 0,0 z"
             style="fill:#fbc707;fill-opacity:1;fill-rule:nonzero;stroke:none"
             id="path56" /></g><g
           id="g58"
           transform="translate(4270.0732,632.074)"><path
             d="M 0,0 C 0,151.043 122.44,273.471 273.472,273.471 424.509,273.471 546.948,151.043 546.948,0 546.948,-151.043 424.509,-273.471 273.472,-273.471 122.44,-273.471 0,-151.043 0,0 z"
             style="fill:none;stroke:#ec086d;stroke-opacity:1;stroke-width:15.727;stroke-linecap:butt;stroke-linejoin:miter;stroke-miterlimit:4;stroke-dasharray:none"
             id="path60" /></g></g></g><g
       id="g62"><g
         id="g64"
         clip-path="url(#clipPath66)"><g
           id="g70"
           transform="translate(261.0215,669.8246)"><path
             d="m 0,0 0,302.532 33.836,0 0,60.373 -33.836,0 0,3.981 0,5.308 c 0,16.586 -1.327,58.383 21.23,58.383 11.279,0 19.904,-2.654 19.904,-2.654 l 0,57.72 c 0,0 -9.952,4.644 -31.182,4.644 -76.96,0 -76.96,-79.613 -76.96,-117.43 l 0,-4.644 0,-5.308 -33.836,0 0,-60.373 33.836,0 L -67.008,0 0,0 z m 196.576,368.213 c -49.095,0 -65.018,-36.49 -67.008,-45.778 l 0,40.47 -67.008,0 0,-362.905 67.008,0 0,252.11 c 0,11.278 2.654,22.557 14.596,33.172 21.23,18.577 52.412,8.625 52.412,8.625 l 0,74.306 z m 132.282,-238.177 0,-39.807 c 0,0 1.328,-36.49 -23.883,-36.49 -24.548,0 -24.548,36.49 -24.548,36.49 l 0,78.95 110.796,0 0,105.488 c 0,0 0.663,93.546 -86.248,93.546 -86.248,0 -86.912,-95.536 -86.912,-95.536 l 0,-182.448 c 0,0 0,-95.537 86.248,-95.537 86.912,0 86.912,93.546 86.912,93.546 l 0,41.798 -62.365,0 z m -48.431,142.641 c 0,0 0,37.153 24.548,37.153 25.211,0 23.883,-37.153 23.883,-37.153 l 0,-51.086 -48.431,0 0,51.086 z m 212.496,90.228 -67.008,0 0,-362.905 67.008,0 0,362.905 z m -67.008,57.72 67.008,0 0,67.008 -67.008,0 0,-67.008 z M 619.376,0 l 0,302.532 33.835,0 0,60.373 -33.835,0 0,3.981 0,5.308 c 0,16.586 -1.327,58.383 21.23,58.383 11.279,0 19.903,-2.654 19.903,-2.654 l 0,57.72 c 0,0 -9.951,4.644 -31.181,4.644 -76.96,0 -76.96,-79.613 -76.96,-117.43 l 0,-4.644 0,-5.308 -33.836,0 0,-60.373 33.836,0 0,-302.532 67.008,0 z m 144.893,59.71 c -7.961,0 -15.923,1.991 -15.923,15.923 l 0,287.272 -67.008,0 0,-297.224 c 0,-29.855 14.596,-70.989 50.422,-70.989 23.22,0 49.095,32.509 54.403,35.827 l 0,-30.519 67.008,0 0,362.905 -67.008,0 0,-285.945 c 0,0 -8.625,-17.25 -21.894,-17.25 m 217.604,243.485 c 7.961,0 15.923,-1.99 15.923,-15.923 l 0,-287.272 67.008,0 0,297.224 c 0,29.855 -14.596,70.989 -50.422,70.989 -23.221,0 -49.095,-32.509 -54.403,-35.826 l 0,30.518 -67.008,0 0,-362.905 67.008,0 0,285.946 c 0,0 8.625,17.249 21.894,17.249 m 122.068,184.438 0,-487.633 67.008,0 0,125.391 8.625,21.231 1.99,5.307 3.317,0 1.327,-5.307 L 1219.381,0 l 64.354,0 -61.037,244.812 48.431,118.093 -60.373,0 -32.509,-94.872 -3.981,-11.943 -3.317,0 0,11.943 0,219.6 -67.008,0 z m 443.832,-119.42 c -49.095,0 -65.017,-36.49 -67.008,-45.778 l 0,40.47 -67.008,0 0,-362.905 67.008,0 0,252.11 c 0,11.278 2.654,22.557 14.596,33.172 21.23,18.577 52.412,8.625 52.412,8.625 l 0,74.306 z m 113.109,-65.018 c 7.962,0 15.923,-1.99 15.923,-15.923 l 0,-287.272 67.008,0 0,297.224 c 0,29.855 -14.596,70.989 -50.422,70.989 -23.22,0 -49.095,-32.509 -54.402,-35.826 l 0,155.246 -67.009,0 0,-487.633 67.009,0 0,285.946 c 0,0 8.624,17.249 21.893,17.249 m 229.215,-173.159 0,-39.807 c 0,0 1.327,-36.49 -23.884,-36.49 -24.548,0 -24.548,36.49 -24.548,36.49 l 0,78.95 110.796,0 0,105.488 c 0,0 0.664,93.546 -86.248,93.546 -86.248,0 -86.912,-95.536 -86.912,-95.536 l 0,-182.448 c 0,0 0,-95.537 86.248,-95.537 86.912,0 86.912,93.546 86.912,93.546 l 0,41.798 -62.364,0 z m -48.432,142.641 c 0,0 0,37.153 24.548,37.153 25.211,0 23.884,-37.153 23.884,-37.153 l 0,-51.086 -48.432,0 0,51.086 z m 212.496,90.228 -67.008,0 0,-362.905 67.008,0 0,362.905 z m -67.008,57.72 67.008,0 0,67.008 -67.008,0 0,-67.008 z m 194.722,-117.43 c 7.961,0 15.922,-1.99 15.922,-15.923 l 0,-287.272 67.009,0 0,297.224 c 0,29.855 -14.597,70.989 -50.422,70.989 -23.221,0 -49.095,-32.509 -54.403,-35.826 l 0,30.518 -67.008,0 0,-362.905 67.008,0 0,285.946 c 0,0 8.625,17.249 21.894,17.249 m 188.744,184.438 -67.008,0 0,-487.633 67.008,0 0,487.633 z m 95.47,-393.424 c 0,34.5 13.932,67.009 46.441,80.941 l 0,-92.883 c 0,-11.942 -12.606,-21.893 -27.865,-21.893 -16.586,0 -18.576,25.211 -18.576,33.835 m -65.682,-9.951 c 0,-76.297 35.826,-89.566 53.739,-89.566 27.202,0 47.105,21.894 53.74,34.5 l 4.644,0 c 0,-3.981 0,-22.557 5.971,-29.192 l 65.681,0 c -2.654,15.923 -4.644,30.519 -4.644,63.027 l 0,109.469 0,113.45 c 0,47.104 -37.816,82.267 -81.604,82.267 -51.085,0 -90.228,-43.788 -90.228,-96.863 l 0,-15.26 67.007,0 c 0.664,20.567 -3.317,53.74 19.241,53.74 18.576,0 18.576,-19.904 18.576,-33.173 l 0,-27.864 0,-11.942 c -6.634,-21.894 -112.123,-29.856 -112.123,-152.593 m 307.105,218.937 c 7.962,0 15.923,-1.99 15.923,-15.923 l 0,-287.272 67.008,0 0,297.224 c 0,29.855 -14.596,70.989 -50.422,70.989 -23.221,0 -49.095,-32.509 -54.403,-35.826 l 0,30.518 -67.008,0 0,-362.905 67.008,0 0,285.946 c 0,0 8.625,17.249 21.894,17.249 m 292.176,184.438 -67.008,0 0,-148.612 c 0,0 -28.529,29.192 -53.076,29.192 -36.49,0 -51.749,-41.134 -51.749,-70.989 l 0,-231.543 c 0,-29.855 15.259,-70.989 51.749,-70.989 24.547,0 53.076,29.192 53.076,29.192 l 0,-23.884 67.008,0 0,487.633 z M 2932.68,79.614 c 0,-12.606 -10.616,-21.894 -19.904,-21.894 -9.952,0 -17.913,9.288 -17.913,21.894 l 0,203.678 c 0,12.605 7.961,21.894 17.913,21.894 9.952,0 19.904,-11.279 19.904,-21.894 l 0,-203.678 z m 327.731,50.422 0,-39.807 c 0,0 1.327,-36.49 -23.884,-36.49 -24.548,0 -24.548,36.49 -24.548,36.49 l 0,78.95 110.796,0 0,105.488 c 0,0 0.663,93.546 -86.248,93.546 -86.248,0 -86.912,-95.536 -86.912,-95.536 l 0,-182.448 c 0,0 0,-95.537 86.248,-95.537 86.912,0 86.912,93.546 86.912,93.546 l 0,41.798 -62.364,0 z m -48.432,142.641 c 0,0 0,37.153 24.548,37.153 25.211,0 23.884,-37.153 23.884,-37.153 l 0,-51.086 -48.432,0 0,51.086 z M 3350.899,0 l 69.662,0 0,73.643 -69.662,0 0,-73.643 z m 197.706,219.601 -2.654,-20.567 -3.981,0 -2.654,20.567 -35.825,268.032 -69.662,0 L 3508.135,0 l 71.652,0 74.306,487.633 -69.662,0 -35.826,-268.032 z M 3644.666,0 l 69.662,0 0,73.643 -69.662,0 0,-73.643 z"
             style="fill:#231f20;fill-opacity:1;fill-rule:nonzero;stroke:none"
             id="path72" /></g><g
           id="g74"
           transform="translate(207.4144,222.4041)"><path
             d="m 0,0 11.178,75.486 -12.696,0 -4.416,-39.468 -0.552,-4.278 -0.828,0 -0.69,4.278 -5.796,39.468 -8.28,0 -5.796,-39.468 -0.69,-4.278 -0.828,0 -0.552,4.278 -4.416,39.468 -12.696,0 L -35.88,0 l 11.592,0 5.382,36.018 0.69,4.278 0.552,0 0.69,-4.278 L -11.592,0 0,0 z m 67.452,0 11.178,75.486 -12.696,0 -4.416,-39.468 -0.552,-4.278 -0.828,0 -0.69,4.278 -5.796,39.468 -8.28,0 -5.796,-39.468 -0.69,-4.278 -0.828,0 -0.552,4.278 -4.416,39.468 -12.696,0 L 31.572,0 l 11.592,0 5.382,36.018 0.69,4.278 0.552,0 0.69,-4.278 L 55.86,0 67.452,0 z m 67.453,0 11.178,75.486 -12.696,0 -4.416,-39.468 -0.552,-4.278 -0.828,0 -0.69,4.278 -5.796,39.468 -8.28,0 -5.796,-39.468 -0.69,-4.278 -0.828,0 -0.552,4.278 -4.416,39.468 -12.696,0 L 99.025,0 l 11.592,0 5.382,36.018 0.69,4.278 0.552,0 0.69,-4.278 L 123.313,0 134.905,0 z m 17.22,0 14.49,0 0,15.318 -14.49,0 0,-15.318 z m 42.394,0 0,62.928 7.038,0 0,12.558 -7.038,0 0,0.828 0,1.104 c 0,3.45 -0.276,12.144 4.416,12.144 2.346,0 4.14,-0.552 4.14,-0.552 l 0,12.006 c 0,0 -2.07,0.966 -6.486,0.966 -16.008,0 -16.008,-16.56 -16.008,-24.426 l 0,-0.966 0,-1.104 -7.038,0 0,-12.558 7.038,0 0,-62.928 13.938,0 z m 46.408,76.59 c -10.212,0 -13.524,-7.59 -13.938,-9.522 l 0,8.418 -13.938,0 0,-75.486 13.938,0 0,52.44 c 0,2.346 0.552,4.692 3.036,6.9 4.416,3.864 10.902,1.794 10.902,1.794 l 0,15.456 z m 33.036,-49.542 0,-8.28 c 0,0 0.276,-7.59 -4.968,-7.59 -5.106,0 -5.106,7.59 -5.106,7.59 l 0,16.422 23.046,0 0,21.942 c 0,0 0.138,19.458 -17.94,19.458 -17.94,0 -18.078,-19.872 -18.078,-19.872 l 0,-37.95 c 0,0 0,-19.872 17.94,-19.872 18.078,0 18.078,19.458 18.078,19.458 l 0,8.694 -12.972,0 z m -10.074,29.67 c 0,0 0,7.728 5.106,7.728 5.244,0 4.968,-7.728 4.968,-7.728 l 0,-10.626 -10.074,0 0,10.626 z m 49.72,18.768 -13.938,0 0,-75.486 13.938,0 0,75.486 z m -13.938,12.006 13.938,0 0,13.938 -13.938,0 0,-13.938 z M 345.432,0 l 0,62.928 7.038,0 0,12.558 -7.038,0 0,0.828 0,1.104 c 0,3.45 -0.276,12.144 4.416,12.144 2.346,0 4.14,-0.552 4.14,-0.552 l 0,12.006 c 0,0 -2.07,0.966 -6.486,0.966 -16.008,0 -16.008,-16.56 -16.008,-24.426 l 0,-0.966 0,-1.104 -7.038,0 0,-12.558 7.038,0 0,-62.928 13.938,0 z m 35.658,12.42 c -1.656,0 -3.312,0.414 -3.312,3.312 l 0,59.754 -13.938,0 0,-61.824 c 0,-6.21 3.036,-14.766 10.488,-14.766 4.83,0 10.212,6.762 11.316,7.452 l 0,-6.348 13.938,0 0,75.486 -13.938,0 0,-59.478 c 0,0 -1.794,-3.588 -4.554,-3.588 m 50.783,50.646 c 1.656,0 3.312,-0.414 3.312,-3.312 l 0,-59.754 13.938,0 0,61.824 c 0,6.21 -3.036,14.766 -10.488,14.766 -4.83,0 -10.212,-6.762 -11.316,-7.452 l 0,6.348 -13.938,0 0,-75.486 13.938,0 0,59.478 c 0,0 1.794,3.588 4.554,3.588 m 30.911,38.364 0,-101.43 13.937,0 0,26.082 1.795,4.416 0.414,1.104 0.69,0 0.276,-1.104 6.9,-30.498 13.386,0 -12.696,50.922 10.074,24.564 -12.558,0 -6.762,-19.734 -0.829,-2.484 -0.69,0 0,2.484 0,45.678 -13.937,0 z m 43.758,-70.794 20.01,0 0,13.11 -20.01,0 0,-13.11 z m 61.036,45.954 c -10.212,0 -13.524,-7.59 -13.938,-9.522 l 0,8.418 -13.938,0 0,-75.486 13.938,0 0,52.44 c 0,2.346 0.552,4.692 3.036,6.9 4.416,3.864 10.902,1.794 10.902,1.794 l 0,15.456 z m 29.048,-13.524 c 1.656,0 3.312,-0.414 3.312,-3.312 l 0,-59.754 13.938,0 0,61.824 c 0,6.21 -3.036,14.766 -10.488,14.766 -4.83,0 -10.212,-6.762 -11.316,-7.452 l 0,32.292 -13.938,0 0,-101.43 13.938,0 0,59.478 c 0,0 1.794,3.588 4.554,3.588 m 53.197,-36.018 0,-8.28 c 0,0 0.276,-7.59 -4.968,-7.59 -5.106,0 -5.106,7.59 -5.106,7.59 l 0,16.422 23.046,0 0,21.942 c 0,0 0.138,19.458 -17.94,19.458 -17.94,0 -18.078,-19.872 -18.078,-19.872 l 0,-37.95 c 0,0 0,-19.872 17.94,-19.872 18.078,0 18.078,19.458 18.078,19.458 l 0,8.694 -12.972,0 z m -10.074,29.67 c 0,0 0,7.728 5.106,7.728 5.244,0 4.968,-7.728 4.968,-7.728 l 0,-10.626 -10.074,0 0,10.626 z m 49.72,18.768 -13.938,0 0,-75.486 13.938,0 0,75.486 z m -13.938,12.006 13.938,0 0,13.938 -13.938,0 0,-13.938 z m 46.023,-24.426 c 1.656,0 3.312,-0.414 3.312,-3.312 l 0,-59.754 13.938,0 0,61.824 c 0,6.21 -3.036,14.766 -10.488,14.766 -4.83,0 -10.212,-6.762 -11.316,-7.452 l 0,6.348 -13.938,0 0,-75.486 13.938,0 0,59.478 c 0,0 1.794,3.588 4.554,3.588 m 44.78,38.364 -13.938,0 0,-101.43 13.938,0 0,101.43 z m 25.378,-81.834 c 0,7.176 2.898,13.938 9.66,16.836 l 0,-19.32 c 0,-2.484 -2.622,-4.554 -5.796,-4.554 -3.45,0 -3.864,5.244 -3.864,7.038 m -13.662,-2.07 c 0,-15.87 7.452,-18.63 11.178,-18.63 5.658,0 9.798,4.554 11.178,7.176 l 0.966,0 c 0,-0.828 0,-4.692 1.242,-6.072 l 13.662,0 c -0.552,3.312 -0.966,6.348 -0.966,13.11 l 0,22.77 0,23.598 c 0,9.798 -7.866,17.112 -16.974,17.112 -10.626,0 -18.768,-9.108 -18.768,-20.148 l 0,-3.174 13.938,0 c 0.138,4.278 -0.69,11.178 4.002,11.178 3.864,0 3.864,-4.14 3.864,-6.9 l 0,-5.796 0,-2.484 c -1.38,-4.554 -23.322,-6.21 -23.322,-31.74 m 69.399,45.54 c 1.656,0 3.312,-0.414 3.312,-3.312 l 0,-59.754 13.938,0 0,61.824 c 0,6.21 -3.036,14.766 -10.488,14.766 -4.83,0 -10.211,-6.762 -11.315,-7.452 l 0,6.348 -13.938,0 0,-75.486 13.938,0 0,59.478 c 0,0 1.793,3.588 4.553,3.588 m 66.294,38.364 -13.938,0 0,-30.912 c 0,0 -5.934,6.072 -11.04,6.072 -7.59,0 -10.764,-8.556 -10.764,-14.766 l 0,-48.162 c 0,-6.21 3.174,-14.766 10.764,-14.766 5.106,0 11.04,6.072 11.04,6.072 l 0,-4.968 13.938,0 0,101.43 z M 899.805,16.56 c 0,-2.622 -2.208,-4.554 -4.14,-4.554 -2.07,0 -3.726,1.932 -3.726,4.554 l 0,42.366 c 0,2.622 1.656,4.554 3.726,4.554 2.07,0 4.14,-2.346 4.14,-4.554 l 0,-42.366 z M 926.7,0 l 14.49,0 0,15.318 -14.49,0 0,-15.318 z m 45.788,63.066 c 1.656,0 3.312,-0.414 3.312,-3.312 l 0,-59.754 13.938,0 0,61.824 c 0,6.21 -3.036,14.766 -10.488,14.766 -4.83,0 -10.212,-6.762 -11.316,-7.452 l 0,6.348 -13.938,0 0,-75.486 13.938,0 0,59.478 c 0,0 1.794,3.588 4.554,3.588 m 53.198,-36.018 0,-8.28 c 0,0 0.276,-7.59 -4.968,-7.59 -5.106,0 -5.106,7.59 -5.106,7.59 l 0,16.422 23.046,0 0,21.942 c 0,0 0.138,19.458 -17.94,19.458 -17.94,0 -18.078,-19.872 -18.078,-19.872 l 0,-37.95 c 0,0 0,-19.872 17.94,-19.872 18.078,0 18.078,19.458 18.078,19.458 l 0,8.694 -12.972,0 z m -10.074,29.67 c 0,0 0,7.728 5.106,7.728 5.244,0 4.968,-7.728 4.968,-7.728 l 0,-10.626 -10.074,0 0,10.626 z m 40.267,37.398 0,-18.63 -7.038,0 0,-12.558 7.038,0 0,-38.64 c 0,-8.832 0,-25.392 16.008,-25.392 4.416,0 7.452,0.966 7.452,0.966 l 0,13.662 c 0,0 -2.76,-0.552 -5.106,-0.552 -4.416,0 -4.416,7.728 -4.416,12.42 l 0,37.536 9.522,0 0,12.558 -9.522,0 0,18.63 -13.938,0 z m 269.866,-50.37 14.49,0 0,15.318 -14.49,0 0,-15.318 z m 278.423,31.74 -13.938,0 0,-75.486 13.938,0 0,75.486 z m -13.938,12.006 13.938,0 0,13.938 -13.938,0 0,-13.938 z m 62.997,13.938 -13.938,0 0,-30.912 c 0,0 -5.934,6.072 -11.04,6.072 -7.59,0 -10.764,-8.556 -10.764,-14.766 l 0,-48.162 c 0,-6.21 3.174,-14.766 10.764,-14.766 5.106,0 11.04,6.072 11.04,6.072 l 0,-4.968 13.938,0 0,101.43 z m -13.938,-84.87 c 0,-2.622 -2.208,-4.554 -4.14,-4.554 -2.07,0 -3.726,1.932 -3.726,4.554 l 0,42.366 c 0,2.622 1.656,4.554 3.726,4.554 2.07,0 4.14,-2.346 4.14,-4.554 l 0,-42.366 z m 50.01,10.488 0,-8.28 c 0,0 0.276,-7.59 -4.968,-7.59 -5.106,0 -5.106,7.59 -5.106,7.59 l 0,16.422 23.046,0 0,21.942 c 0,0 0.138,19.458 -17.94,19.458 -17.94,0 -18.078,-19.872 -18.078,-19.872 l 0,-37.95 c 0,0 0,-19.872 17.94,-19.872 18.078,0 18.078,19.458 18.078,19.458 l 0,8.694 -12.972,0 z m -10.074,29.67 c 0,0 0,7.728 5.106,7.728 5.244,0 4.968,-7.728 4.968,-7.728 l 0,-10.626 -10.074,0 0,10.626 z m 54.233,6.348 c 1.656,0 3.312,-0.414 3.312,-3.312 l 0,-59.754 13.938,0 0,61.824 c 0,6.21 -3.036,14.766 -10.488,14.766 -4.83,0 -10.212,-6.762 -11.316,-7.452 l 0,6.348 -13.938,0 0,-75.486 13.938,0 0,59.478 c 0,0 1.794,3.588 4.554,3.588 m 35.174,31.05 0,-18.63 -7.038,0 0,-12.558 7.038,0 0,-38.64 c 0,-8.832 0,-25.392 16.008,-25.392 4.416,0 7.452,0.966 7.452,0.966 l 0,13.662 c 0,0 -2.76,-0.552 -5.106,-0.552 -4.416,0 -4.416,7.728 -4.416,12.42 l 0,37.536 9.522,0 0,12.558 -9.522,0 0,18.63 -13.938,0 z m 48.576,-18.63 -13.938,0 0,-75.486 13.938,0 0,75.486 z m -13.938,12.006 13.938,0 0,13.938 -13.938,0 0,-13.938 z M 1829.959,0 l 14.49,0 0,15.318 -14.49,0 0,-15.318 z m 39.826,58.098 c 0,2.76 0.138,6.072 3.865,6.072 3.173,0 4.001,-1.518 4.001,-6.072 l 0,-9.108 13.938,0 0,5.934 c 0,16.836 -6.209,21.666 -17.939,21.666 -10.075,0 -17.803,-5.52 -17.803,-22.356 l 0,-32.982 c 0,-16.836 7.728,-22.356 17.803,-22.356 11.73,0 17.939,4.83 17.939,21.666 l 0,7.314 -13.938,0 0,-10.488 c 0,-4.554 -0.828,-6.072 -4.001,-6.072 -3.727,0 -3.865,3.312 -3.865,6.072 l 0,40.71 z m 46.353,-38.502 c 0,7.176 2.898,13.938 9.66,16.836 l 0,-19.32 c 0,-2.484 -2.622,-4.554 -5.796,-4.554 -3.45,0 -3.864,5.244 -3.864,7.038 m -13.662,-2.07 c 0,-15.87 7.452,-18.63 11.178,-18.63 5.658,0 9.798,4.554 11.178,7.176 l 0.966,0 c 0,-0.828 0,-4.692 1.242,-6.072 l 13.662,0 c -0.552,3.312 -0.966,6.348 -0.966,13.11 l 0,22.77 0,23.598 c 0,9.798 -7.866,17.112 -16.974,17.112 -10.626,0 -18.768,-9.108 -18.768,-20.148 l 0,-3.174 13.938,0 c 0.138,4.278 -0.69,11.178 4.002,11.178 3.864,0 3.864,-4.14 3.864,-6.9 l 0,-5.796 0,-2.484 c -1.38,-4.554 -23.322,-6.21 -23.322,-31.74 M 1952.942,0 l 14.49,0 0,15.318 -14.49,0 0,-15.318 z m 0,60.168 14.49,0 0,15.318 -14.49,0 0,-15.318 z m 106.671,20.148 c 0,6.624 -4.968,22.218 -25.254,22.218 -20.286,0 -25.254,-15.594 -25.254,-22.218 l 0,-59.892 c 0,-6.348 4.968,-21.528 25.254,-21.528 11.592,0 17.802,4.692 21.528,9.66 l -10.212,5.796 c -2.208,-2.76 -5.382,-4.278 -11.316,-4.278 -10.35,0 -12.834,7.038 -12.834,10.35 l 0,59.892 c 0,3.036 2.484,10.626 12.834,10.626 10.35,0 12.834,-7.59 12.834,-10.626 l 0,-3.036 c 0,0 -2.209,4.554 -7.59,4.554 -7.314,0 -9.798,-5.244 -9.798,-11.454 l 0,-32.706 c 0,-6.348 2.484,-11.592 9.798,-11.592 5.381,0 7.59,4.554 7.59,4.554 l 1.38,-3.726 11.04,0 0,53.406 z m -12.42,-41.676 c 0,-2.484 -1.38,-3.588 -3.313,-3.588 -2.069,0 -3.173,1.104 -3.173,3.588 l 0,30.636 c 0,2.484 1.104,3.588 3.173,3.588 1.933,0 3.313,-1.38 3.313,-3.588 l 0,-30.636 z M 2090.979,0 l 0,62.928 7.038,0 0,12.558 -7.038,0 0,0.828 0,1.104 c 0,3.45 -0.276,12.144 4.416,12.144 2.346,0 4.14,-0.552 4.14,-0.552 l 0,12.006 c 0,0 -2.07,0.966 -6.486,0.966 -16.008,0 -16.008,-16.56 -16.008,-24.426 l 0,-0.966 0,-1.104 -7.038,0 0,-12.558 7.038,0 0,-62.928 13.938,0 z m 37.646,0 0,62.928 7.038,0 0,12.558 -7.038,0 0,0.828 0,1.104 c 0,3.45 -0.276,12.144 4.416,12.144 2.346,0 4.14,-0.552 4.14,-0.552 l 0,12.006 c 0,0 -2.07,0.966 -6.486,0.966 -16.008,0 -16.008,-16.56 -16.008,-24.426 l 0,-0.966 0,-1.104 -7.038,0 0,-12.558 7.038,0 0,-62.928 13.938,0 z m 46.408,76.59 c -10.212,0 -13.524,-7.59 -13.938,-9.522 l 0,8.418 -13.938,0 0,-75.486 13.938,0 0,52.44 c 0,2.346 0.553,4.692 3.036,6.9 4.416,3.864 10.902,1.794 10.902,1.794 l 0,15.456 z m 29.048,-13.524 c 1.655,0 3.312,-0.414 3.312,-3.312 l 0,-59.754 13.938,0 0,61.824 c 0,6.21 -3.036,14.766 -10.489,14.766 -4.829,0 -10.212,-6.762 -11.316,-7.452 l 0,32.292 -13.937,0 0,-101.43 13.937,0 0,59.478 c 0,0 1.794,3.588 4.555,3.588 m 53.197,-36.018 0,-8.28 c 0,0 0.276,-7.59 -4.968,-7.59 -5.106,0 -5.106,7.59 -5.106,7.59 l 0,16.422 23.047,0 0,21.942 c 0,0 0.137,19.458 -17.941,19.458 -17.94,0 -18.077,-19.872 -18.077,-19.872 l 0,-37.95 c 0,0 0,-19.872 17.939,-19.872 18.079,0 18.079,19.458 18.079,19.458 l 0,8.694 -12.973,0 z m -10.074,29.67 c 0,0 0,7.728 5.106,7.728 5.244,0 4.968,-7.728 4.968,-7.728 l 0,-10.626 -10.074,0 0,10.626 z m 49.72,18.768 -13.938,0 0,-75.486 13.938,0 0,75.486 z m -13.938,12.006 13.938,0 0,13.938 -13.938,0 0,-13.938 z m 46.023,-24.426 c 1.657,0 3.312,-0.414 3.312,-3.312 l 0,-59.754 13.938,0 0,61.824 c 0,6.21 -3.035,14.766 -10.487,14.766 -4.83,0 -10.212,-6.762 -11.316,-7.452 l 0,6.348 -13.938,0 0,-75.486 13.938,0 0,59.478 c 0,0 1.794,3.588 4.553,3.588 m 266.968,-19.32 14.49,0 0,15.318 -14.49,0 0,-15.318 z m 267.382,50.37 0,-18.63 -7.038,0 0,-12.558 7.038,0 0,-38.64 c 0,-8.832 0,-25.392 16.008,-25.392 4.416,0 7.452,0.966 7.452,0.966 l 0,13.662 c 0,0 -2.76,-0.552 -5.105,-0.552 -4.417,0 -4.417,7.728 -4.417,12.42 l 0,37.536 9.522,0 0,12.558 -9.522,0 0,18.63 -13.938,0 z m 57.035,-67.068 0,-8.28 c 0,0 0.276,-7.59 -4.968,-7.59 -5.106,0 -5.106,7.59 -5.106,7.59 l 0,16.422 23.046,0 0,21.942 c 0,0 0.138,19.458 -17.94,19.458 -17.94,0 -18.078,-19.872 -18.078,-19.872 l 0,-37.95 c 0,0 0,-19.872 17.94,-19.872 18.078,0 18.078,19.458 18.078,19.458 l 0,8.694 -12.972,0 z m -10.074,29.67 c 0,0 0,7.728 5.106,7.728 5.244,0 4.968,-7.728 4.968,-7.728 l 0,-10.626 -10.074,0 0,10.626 z m 49.72,44.712 -13.938,0 0,-101.43 13.938,0 0,101.43 z m 36.046,-74.382 0,-8.28 c 0,0 0.276,-7.59 -4.968,-7.59 -5.106,0 -5.106,7.59 -5.106,7.59 l 0,16.422 23.046,0 0,21.942 c 0,0 0.138,19.458 -17.94,19.458 -17.94,0 -18.078,-19.872 -18.078,-19.872 l 0,-37.95 c 0,0 0,-19.872 17.94,-19.872 18.078,0 18.078,19.458 18.078,19.458 l 0,8.694 -12.972,0 z m -10.074,29.67 c 0,0 0,7.728 5.106,7.728 5.244,0 4.968,-7.728 4.968,-7.728 l 0,-10.626 -10.074,0 0,10.626 z M 3040.217,0 l 0,62.928 7.038,0 0,12.558 -7.038,0 0,0.828 0,1.104 c 0,3.45 -0.276,12.144 4.416,12.144 2.346,0 4.14,-0.552 4.14,-0.552 l 0,12.006 c 0,0 -2.07,0.966 -6.486,0.966 -16.008,0 -16.008,-16.56 -16.008,-24.426 l 0,-0.966 0,-1.104 -7.038,0 0,-12.558 7.038,0 0,-62.928 13.938,0 z m 53.557,57.132 c 0,0 0.138,19.458 -17.94,19.458 -17.94,0 -17.802,-19.872 -17.802,-19.872 l 0,-37.95 c 0,0 -0.138,-19.872 17.802,-19.872 18.078,0 17.94,19.458 17.94,19.458 l 0,38.778 z m -13.11,-0.414 0,-37.95 c 0,0 0.414,-7.59 -4.83,-7.59 -5.106,0 -4.692,7.59 -4.692,7.59 l 0,37.95 c 0,0 -0.414,7.728 4.692,7.728 5.244,0 4.83,-7.728 4.83,-7.728 m 44.422,6.348 c 1.656,0 3.312,-0.414 3.312,-3.312 l 0,-59.754 13.938,0 0,61.824 c 0,6.21 -3.036,14.766 -10.488,14.766 -4.83,0 -10.212,-6.762 -11.316,-7.452 l 0,6.348 -13.938,0 0,-75.486 13.938,0 0,59.478 c 0,0 1.794,3.588 4.554,3.588 M 3154.948,0 l 14.49,0 0,15.318 -14.49,0 0,-15.318 z m 0,60.168 14.49,0 0,15.318 -14.49,0 0,-15.318 z m 96.045,-39.33 0,59.754 c 0,0 0.138,21.942 -19.872,21.942 -20.01,0 -19.872,-21.942 -19.872,-21.942 l 0,-59.754 c 0,0 -0.138,-21.942 19.872,-21.942 20.01,0 19.872,21.942 19.872,21.942 m -14.904,59.754 0,-59.754 c 0,0 0.276,-7.452 -4.968,-7.452 -5.244,0 -4.968,7.452 -4.968,7.452 l 0,59.754 c 0,0 -0.276,7.452 4.968,7.452 5.244,0 4.968,-7.452 4.968,-7.452 m 41.868,-11.316 0,7.038 c 0,6.486 0.828,12.42 4.967,12.42 4.416,0 4.969,-6.9 4.969,-12.42 -0.69,-24.84 -25.254,-61.548 -25.254,-61.548 l 0,-14.766 40.433,0 0,14.766 -23.597,0 c 7.59,12.972 23.322,41.814 23.322,62.514 0,13.938 -4.692,25.254 -19.873,25.254 -16.283,0 -19.872,-12.558 -19.872,-26.22 l 0,-7.038 14.905,0 z m 46.091,10.212 0,-79.488 14.904,0 0,101.43 -8.97,0 c 0,0 -3.45,-9.936 -15.87,-12.42 l 0,-9.522 9.936,0 z m 36.142,0 0,-79.488 14.903,0 0,101.43 -8.97,0 c 0,0 -3.45,-9.936 -15.869,-12.42 l 0,-9.522 9.936,0 z m 27.875,-48.852 20.01,0 0,13.11 -20.01,0 0,-13.11 z M 3442.173,0 l 13.663,0 0,22.08 6.899,0 0,13.11 -6.899,0 0,66.24 -14.904,0 -21.804,-66.24 0,-13.11 23.045,0 0,-22.08 z m -1.655,66.93 0.828,3.036 0.827,0 0,-3.036 0,-31.74 -10.349,0 8.694,31.74 z m 37.563,12.558 0,-79.488 14.904,0 0,101.43 -8.97,0 c 0,0 -3.45,-9.936 -15.87,-12.42 l 0,-9.522 9.936,0 z M 3510.966,0 l 15.456,0 14.904,86.526 0,14.904 -37.536,0 0,-14.766 22.356,0 L 3510.966,0 z m 58.346,0 13.662,0 0,22.08 6.9,0 0,13.11 -6.9,0 0,66.24 -14.904,0 -21.804,-66.24 0,-13.11 23.046,0 0,-22.08 z m -1.656,66.93 0.828,3.036 0.828,0 0,-3.036 0,-31.74 -10.35,0 8.694,31.74 z m 37.563,12.558 0,-79.488 14.904,0 0,101.43 -8.97,0 c 0,0 -3.45,-9.936 -15.87,-12.42 l 0,-9.522 9.936,0 z m 42.462,-10.212 0,7.038 c 0,6.486 0.828,12.42 4.968,12.42 4.416,0 4.968,-6.9 4.968,-12.42 -0.69,-24.84 -25.254,-61.548 -25.254,-61.548 l 0,-14.766 40.434,0 0,14.766 -23.598,0 c 7.59,12.972 23.322,41.814 23.322,62.514 0,13.938 -4.692,25.254 -19.872,25.254 -16.284,0 -19.872,-12.558 -19.872,-26.22 l 0,-7.038 14.904,0 z m 52.563,0 0,7.038 c 0,6.486 0.828,12.42 4.968,12.42 4.416,0 4.968,-6.9 4.968,-12.42 -0.69,-24.84 -25.254,-61.548 -25.254,-61.548 l 0,-14.766 40.434,0 0,14.766 -23.598,0 c 7.59,12.972 23.322,41.814 23.322,62.514 0,13.938 -4.692,25.254 -19.872,25.254 -16.284,0 -19.872,-12.558 -19.872,-26.22 l 0,-7.038 14.904,0 z m 46.092,10.212 0,-79.488 14.904,0 0,101.43 -8.97,0 c 0,0 -3.451,-9.936 -15.87,-12.42 l 0,-9.522 9.936,0 z"
             style="fill:#231f20;fill-opacity:1;fill-rule:nonzero;stroke:none"
             id="path76" /></g></g></g><path
       d="m 0,1283.805 5725.984,0 0,190.21 -5725.984,0 0,-190.21 z"
       style="fill:#fbc707;fill-opacity:1;fill-rule:nonzero;stroke:none"
       id="path78" /><path
       d="m 0,0 5725.984,0 0,190.212 L 0,190.212 0,0 z"
       style="fill:#fbc707;fill-opacity:1;fill-rule:nonzero;stroke:none"
       id="path80" /></g></svg>